<svg version="1.1" id="Layer_1" xmlns="http://www.w3.org/2000/svg" xmlns:xlink="http://www.w3.org/1999/xlink" x="0px" y="0px"
	 width="100%" viewBox="0 0 212 212" enable-background="new 0 0 212 212" xml:space="preserve">
<path fill="#FBFAF8" opacity="1.000000" stroke="none" 
	d="
M149.000000,213.000000 
	C99.333336,213.000000 50.166672,213.000000 1.000007,213.000000 
	C1.000004,142.333344 1.000004,71.666679 1.000002,1.000016 
	C71.666656,1.000011 142.333313,1.000011 212.999969,1.000005 
	C212.999985,71.666649 212.999985,142.333298 213.000000,212.999969 
	C191.833328,213.000000 170.666672,213.000000 149.000000,213.000000 
M36.388817,60.111023 
	C31.298954,71.828835 34.748142,82.479485 40.961861,92.889885 
	C38.388069,94.733597 36.041317,96.280876 33.841713,98.014809 
	C26.525843,103.781891 20.094723,110.364685 17.990536,119.781227 
	C15.766612,129.733597 18.028219,138.706253 25.841480,145.691177 
	C35.045071,153.919022 45.811905,156.447220 57.406803,152.278702 
	C63.708466,150.013184 69.435059,146.148087 75.858658,142.774658 
	C80.187912,150.424820 87.884514,147.008911 94.595901,147.559677 
	C96.057663,138.899185 95.101418,131.694183 89.245720,125.235466 
	C84.351425,119.837166 80.434875,113.550072 76.110176,107.638390 
	C72.209785,102.306709 68.343102,96.950371 64.519127,91.684196 
	C69.352242,87.639938 74.136375,84.245743 78.182632,80.126694 
	C87.188713,70.958595 85.757713,58.257572 75.254555,50.821304 
	C63.263165,42.331360 45.095570,46.413918 36.388817,60.111023 
M152.283340,81.385307 
	C151.964218,86.404259 148.774490,83.422867 146.063843,83.934387 
	C146.063843,78.665833 146.063843,73.916786 146.063843,69.029251 
	C143.858688,69.139412 142.246170,69.219971 140.300842,69.317154 
	C140.300842,81.295288 140.300842,93.013863 140.300842,104.814163 
	C142.303375,104.814163 144.049057,104.814163 146.270416,104.814163 
	C146.270416,99.825836 146.270416,95.070992 146.270416,90.174431 
	C148.488113,90.174431 150.224335,90.174431 152.366425,90.174431 
	C152.366425,95.205879 152.366425,99.970695 152.366425,104.772110 
	C154.669571,104.772110 156.560120,104.772110 158.633881,104.772110 
	C158.633881,92.699875 158.633881,80.945877 158.633881,69.197250 
	C156.419876,69.197250 154.513489,69.197250 152.283630,69.197250 
	C152.283630,73.137268 152.283630,76.777939 152.283340,81.385307 
M187.812714,103.946426 
	C187.812714,99.682228 187.812714,95.418030 187.812714,89.720009 
	C193.853989,94.113892 192.296417,100.559174 195.679291,104.823685 
	C197.210602,104.738037 198.970718,104.639587 201.162003,104.517021 
	C199.865189,100.333412 198.552383,96.592049 197.599854,92.761101 
	C197.260208,91.395111 197.291046,89.478859 198.015579,88.385567 
	C201.180832,83.609306 201.302063,78.574677 199.089279,73.687248 
	C196.968704,69.003502 192.338593,68.917175 187.886337,69.043930 
	C185.943161,69.099258 183.997086,69.053238 182.171143,69.053238 
	C182.171143,81.250465 182.171143,92.933189 182.171143,104.584953 
	C184.202011,104.584953 185.694000,104.584953 187.812714,103.946426 
M141.905457,116.644760 
	C141.900925,123.967072 141.789185,131.291443 141.929565,138.610977 
	C142.022964,143.481155 145.480637,146.514725 150.784348,146.803146 
	C155.939819,147.083527 159.871841,144.651596 160.072998,139.881409 
	C160.484314,130.127151 160.196320,120.343407 160.196320,110.631363 
	C158.035294,110.631363 156.145508,110.631363 154.042114,110.631363 
	C154.042114,118.789314 154.113297,126.598412 153.999863,134.404816 
	C153.964645,136.828430 155.110016,140.539459 150.939606,140.431961 
	C147.131638,140.333801 147.809509,136.830963 147.743225,134.263458 
	C147.683136,131.936737 147.828552,129.605484 147.835526,127.276093 
	C147.852280,121.682426 147.840973,116.088684 147.840973,110.560226 
	C145.533844,110.560226 143.933884,110.560226 141.910553,110.560226 
	C141.910553,112.429596 141.910553,114.061562 141.905457,116.644760 
M116.032944,72.847267 
	C113.695541,68.575890 109.582481,67.842171 105.714500,69.099930 
	C103.120247,69.943497 99.452202,72.644524 99.256157,74.788048 
	C98.507278,82.976303 98.472015,91.319221 99.192024,99.514610 
	C99.550827,103.598694 103.373764,105.720200 107.749924,105.562614 
	C112.445625,105.393509 116.340454,103.215492 116.594124,98.459724 
	C117.034256,90.208321 116.457596,81.902679 116.032944,72.847267 
M108.726974,109.872314 
	C104.777077,110.323181 101.730919,111.902946 100.800430,116.166267 
	C99.840378,120.564987 100.644447,124.312767 104.326424,127.326935 
	C107.131439,129.623199 109.952103,132.012375 112.207748,134.810150 
	C113.057251,135.863815 112.591820,138.247772 112.182831,139.890060 
	C112.051025,140.419327 109.694901,141.099655 109.207817,140.692413 
	C108.107430,139.772446 107.476578,138.249390 106.778625,136.907227 
	C106.436272,136.248871 106.370140,135.446869 106.223495,134.881470 
	C104.236504,134.881470 102.621582,134.881470 101.041199,134.881470 
	C99.970108,142.625626 102.428650,146.456589 108.595482,146.732819 
	C112.841995,146.923035 116.718391,145.895981 118.571106,141.665680 
	C120.436211,137.407074 120.122002,133.099823 116.719093,129.633408 
	C114.404892,127.276016 111.433365,125.542107 109.242577,123.093796 
	C107.996887,121.701660 107.545776,119.467216 107.186958,117.528770 
	C107.118988,117.161598 109.893211,115.705627 110.119133,115.940697 
	C111.324097,117.194580 112.122673,118.834946 113.097237,120.318359 
	C113.257950,120.562988 113.594185,120.692307 113.666069,120.743759 
	C115.482849,120.743759 117.107460,120.743759 118.705673,120.743759 
	C119.382431,112.922340 117.223671,110.386345 108.726974,109.872314 
M162.897766,72.679504 
	C162.897766,83.289391 162.897766,93.899269 162.897766,104.803398 
	C168.216736,104.803398 173.103790,104.803398 177.978790,104.803398 
	C177.978790,102.853638 177.978790,101.128960 177.978790,99.115356 
	C174.828110,99.115356 172.052444,99.115356 169.100891,99.115356 
	C169.100891,95.899139 169.100891,92.977745 169.100891,89.684097 
	C171.421310,89.684097 173.518356,89.684097 175.780396,89.684097 
	C175.780396,87.614388 175.780396,85.928413 175.780396,84.249496 
	C173.375504,84.079964 171.299973,83.933640 169.532684,83.809052 
	C169.532684,80.639175 169.532684,77.919586 169.532684,74.733818 
	C172.559036,74.733818 175.138550,74.733818 177.923294,74.733818 
	C177.819672,72.647453 177.740448,71.052025 177.644455,69.119102 
	C173.333878,69.119102 169.354736,68.964806 165.405060,69.237297 
	C164.516907,69.298576 163.731583,70.850426 162.897766,72.679504 
M179.587463,116.024483 
	C179.749252,114.320473 179.911026,112.616470 180.099014,110.636398 
	C174.728302,110.636398 169.962082,110.636398 164.742950,110.636398 
	C164.742950,122.399178 164.742950,134.068008 164.742950,145.644775 
	C166.830338,145.644775 168.731995,145.644775 171.082092,145.644775 
	C171.082092,140.622681 171.082092,135.895035 171.082092,131.168350 
	C173.629623,130.919846 175.726135,130.715332 177.886948,130.504562 
	C177.886948,128.605103 177.886948,127.014847 177.886948,125.265823 
	C175.488266,125.069939 173.279816,124.889587 171.148712,124.715561 
	C171.148712,121.684029 171.148712,119.227951 171.148712,116.203476 
	C173.799011,116.203476 176.255600,116.203476 179.587463,116.024483 
M195.083206,110.315681 
	C191.157181,110.315681 187.231155,110.315681 183.138611,110.315681 
	C183.138611,122.419746 183.138611,133.997330 183.138611,145.632629 
	C185.257965,145.632629 187.138062,145.632629 189.401123,145.632629 
	C189.401123,140.726044 189.401123,136.122772 189.401123,131.309479 
	C192.015640,131.162201 194.259247,131.035812 196.483307,130.910538 
	C196.483307,128.878891 196.483307,127.189178 196.483307,125.347153 
	C194.027130,125.347153 191.938507,125.347153 189.589996,125.347153 
	C189.589996,122.212196 189.589996,119.338211 189.589996,116.151611 
	C192.472137,116.151611 195.067215,116.151611 199.131073,116.151611 
	C197.791718,113.674545 196.885361,111.998314 195.083206,110.315681 
M133.449982,116.928001 
	C135.185547,116.596405 136.921097,116.264809 138.950043,115.877159 
	C138.864243,114.116837 138.779984,112.387955 138.693527,110.614197 
	C132.848923,110.614197 127.446938,110.614197 121.843201,110.614197 
	C121.843201,112.465515 121.843201,114.068672 121.843201,115.910301 
	C123.471664,116.079376 125.030746,116.241241 127.037315,116.449577 
	C127.037315,126.475586 127.037315,136.186096 127.037315,145.787140 
	C129.339584,145.787140 131.142899,145.787140 133.141251,145.787140 
	C133.141251,136.363907 133.141251,127.085869 133.449982,116.928001 
M131.071533,103.243027 
	C131.071533,93.951561 131.071533,84.660103 131.071533,75.182144 
	C133.105042,75.012909 134.697906,74.880341 136.692337,74.714363 
	C136.592606,72.791695 136.505066,71.104279 136.420197,69.468231 
	C130.548553,69.468231 125.286079,69.468231 119.830421,69.468231 
	C119.830421,71.280106 119.830421,72.880905 119.830421,74.566551 
	C121.579903,74.768600 123.132416,74.947899 125.019348,75.165817 
	C125.019348,85.207253 125.019348,94.952400 125.019348,105.268242 
	C127.307884,104.856018 129.147079,104.524727 131.071533,103.243027 
z"/>
<path fill="#0A0B0A" opacity="1.000000" stroke="none" 
	d="
M36.588661,59.788139 
	C45.095570,46.413918 63.263165,42.331360 75.254555,50.821304 
	C85.757713,58.257572 87.188713,70.958595 78.182632,80.126694 
	C74.136375,84.245743 69.352242,87.639938 64.519127,91.684196 
	C68.343102,96.950371 72.209785,102.306709 76.110176,107.638390 
	C80.434875,113.550072 84.351425,119.837166 89.245720,125.235466 
	C95.101418,131.694183 96.057663,138.899185 94.595901,147.559677 
	C87.884514,147.008911 80.187912,150.424820 75.858658,142.774658 
	C69.435059,146.148087 63.708466,150.013184 57.406803,152.278702 
	C45.811905,156.447220 35.045071,153.919022 25.841480,145.691177 
	C18.028219,138.706253 15.766612,129.733597 17.990536,119.781227 
	C20.094723,110.364685 26.525843,103.781891 33.841713,98.014809 
	C36.041317,96.280876 38.388069,94.733597 40.961861,92.889885 
	C34.748142,82.479485 31.298954,71.828835 36.588661,59.788139 
M35.674057,118.532730 
	C37.410835,123.457115 38.289810,128.941605 41.063213,133.189117 
	C46.811462,141.992676 64.398567,143.865677 69.910820,133.854233 
	C62.102863,122.818451 54.191036,111.635864 46.252434,100.415428 
	C39.197086,105.970352 36.768127,110.098152 35.674057,118.532730 
M71.629646,69.876930 
	C71.517128,67.407623 71.749199,64.862381 71.225067,62.483768 
	C69.858231,56.280655 65.870560,53.185326 60.423035,53.660927 
	C55.195450,54.117325 51.417213,58.320545 51.403694,64.382965 
	C51.386768,71.972733 54.261227,78.509331 59.343185,84.151123 
	C65.276070,81.019341 70.094994,77.394547 71.629646,69.876930 
z"/>
<path fill="#151715" opacity="1.000000" stroke="none" 
	d="
M152.283478,80.901962 
	C152.283630,76.777939 152.283630,73.137268 152.283630,69.197250 
	C154.513489,69.197250 156.419876,69.197250 158.633881,69.197250 
	C158.633881,80.945877 158.633881,92.699875 158.633881,104.772110 
	C156.560120,104.772110 154.669571,104.772110 152.366425,104.772110 
	C152.366425,99.970695 152.366425,95.205879 152.366425,90.174431 
	C150.224335,90.174431 148.488113,90.174431 146.270416,90.174431 
	C146.270416,95.070992 146.270416,99.825836 146.270416,104.814163 
	C144.049057,104.814163 142.303375,104.814163 140.300842,104.814163 
	C140.300842,93.013863 140.300842,81.295288 140.300842,69.317154 
	C142.246170,69.219971 143.858688,69.139412 146.063843,69.029251 
	C146.063843,73.916786 146.063843,78.665833 146.063843,83.934387 
	C148.774490,83.422867 151.964218,86.404259 152.283478,80.901962 
z"/>
<path fill="#111211" opacity="1.000000" stroke="none" 
	d="
M187.499359,104.265686 
	C185.694000,104.584953 184.202011,104.584953 182.171143,104.584953 
	C182.171143,92.933189 182.171143,81.250465 182.171143,69.053238 
	C183.997086,69.053238 185.943161,69.099258 187.886337,69.043930 
	C192.338593,68.917175 196.968704,69.003502 199.089279,73.687248 
	C201.302063,78.574677 201.180832,83.609306 198.015579,88.385567 
	C197.291046,89.478859 197.260208,91.395111 197.599854,92.761101 
	C198.552383,96.592049 199.865189,100.333412 201.162003,104.517021 
	C198.970718,104.639587 197.210602,104.738037 195.679291,104.823685 
	C192.296417,100.559174 193.853989,94.113892 187.812714,89.720009 
	C187.812714,95.418030 187.812714,99.682228 187.499359,104.265686 
M187.785339,79.466286 
	C187.885025,81.244286 187.984711,83.022285 188.085571,84.821205 
	C192.508011,85.503265 194.464172,83.900352 194.350250,79.544708 
	C194.235550,75.158676 191.843872,74.418297 187.982849,75.122726 
	C187.913696,76.291435 187.847458,77.411148 187.785339,79.466286 
z"/>
<path fill="#161716" opacity="1.000000" stroke="none" 
	d="
M141.908005,116.169144 
	C141.910553,114.061562 141.910553,112.429596 141.910553,110.560226 
	C143.933884,110.560226 145.533844,110.560226 147.840973,110.560226 
	C147.840973,116.088684 147.852280,121.682426 147.835526,127.276093 
	C147.828552,129.605484 147.683136,131.936737 147.743225,134.263458 
	C147.809509,136.830963 147.131638,140.333801 150.939606,140.431961 
	C155.110016,140.539459 153.964645,136.828430 153.999863,134.404816 
	C154.113297,126.598412 154.042114,118.789314 154.042114,110.631363 
	C156.145508,110.631363 158.035294,110.631363 160.196320,110.631363 
	C160.196320,120.343407 160.484314,130.127151 160.072998,139.881409 
	C159.871841,144.651596 155.939819,147.083527 150.784348,146.803146 
	C145.480637,146.514725 142.022964,143.481155 141.929565,138.610977 
	C141.789185,131.291443 141.900925,123.967072 141.908005,116.169144 
z"/>
<path fill="#121311" opacity="1.000000" stroke="none" 
	d="
M116.170135,73.233521 
	C116.457596,81.902679 117.034256,90.208321 116.594124,98.459724 
	C116.340454,103.215492 112.445625,105.393509 107.749924,105.562614 
	C103.373764,105.720200 99.550827,103.598694 99.192024,99.514610 
	C98.472015,91.319221 98.507278,82.976303 99.256157,74.788048 
	C99.452202,72.644524 103.120247,69.943497 105.714500,69.099930 
	C109.582481,67.842171 113.695541,68.575890 116.170135,73.233521 
M108.406288,99.519775 
	C109.231178,98.582329 110.739975,97.666519 110.770432,96.703934 
	C110.974739,90.246719 110.983917,83.774681 110.720627,77.321152 
	C110.683533,76.412010 108.564835,74.698692 107.853310,74.902969 
	C106.613838,75.258812 104.897087,76.761024 104.819237,77.882584 
	C104.417984,83.663071 104.251266,89.485809 104.523849,95.269241 
	C104.593994,96.757568 106.549561,98.157036 108.406288,99.519775 
z"/>
<path fill="#101110" opacity="1.000000" stroke="none" 
	d="
M109.147781,109.837967 
	C117.223671,110.386345 119.382431,112.922340 118.705673,120.743759 
	C117.107460,120.743759 115.482849,120.743759 113.666069,120.743759 
	C113.594185,120.692307 113.257950,120.562988 113.097237,120.318359 
	C112.122673,118.834946 111.324097,117.194580 110.119133,115.940697 
	C109.893211,115.705627 107.118988,117.161598 107.186958,117.528770 
	C107.545776,119.467216 107.996887,121.701660 109.242577,123.093796 
	C111.433365,125.542107 114.404892,127.276016 116.719093,129.633408 
	C120.122002,133.099823 120.436211,137.407074 118.571106,141.665680 
	C116.718391,145.895981 112.841995,146.923035 108.595482,146.732819 
	C102.428650,146.456589 99.970108,142.625626 101.041199,134.881470 
	C102.621582,134.881470 104.236504,134.881470 106.223495,134.881470 
	C106.370140,135.446869 106.436272,136.248871 106.778625,136.907227 
	C107.476578,138.249390 108.107430,139.772446 109.207817,140.692413 
	C109.694901,141.099655 112.051025,140.419327 112.182831,139.890060 
	C112.591820,138.247772 113.057251,135.863815 112.207748,134.810150 
	C109.952103,132.012375 107.131439,129.623199 104.326424,127.326935 
	C100.644447,124.312767 99.840378,120.564987 100.800430,116.166267 
	C101.730919,111.902946 104.777077,110.323181 109.147781,109.837967 
z"/>
<path fill="#131413" opacity="1.000000" stroke="none" 
	d="
M162.898346,72.197800 
	C163.731583,70.850426 164.516907,69.298576 165.405060,69.237297 
	C169.354736,68.964806 173.333878,69.119102 177.644455,69.119102 
	C177.740448,71.052025 177.819672,72.647453 177.923294,74.733818 
	C175.138550,74.733818 172.559036,74.733818 169.532684,74.733818 
	C169.532684,77.919586 169.532684,80.639175 169.532684,83.809052 
	C171.299973,83.933640 173.375504,84.079964 175.780396,84.249496 
	C175.780396,85.928413 175.780396,87.614388 175.780396,89.684097 
	C173.518356,89.684097 171.421310,89.684097 169.100891,89.684097 
	C169.100891,92.977745 169.100891,95.899139 169.100891,99.115356 
	C172.052444,99.115356 174.828110,99.115356 177.978790,99.115356 
	C177.978790,101.128960 177.978790,102.853638 177.978790,104.803398 
	C173.103790,104.803398 168.216736,104.803398 162.897766,104.803398 
	C162.897766,93.899269 162.897766,83.289391 162.898346,72.197800 
z"/>
<path fill="#131413" opacity="1.000000" stroke="none" 
	d="
M179.149826,116.113983 
	C176.255600,116.203476 173.799011,116.203476 171.148712,116.203476 
	C171.148712,119.227951 171.148712,121.684029 171.148712,124.715561 
	C173.279816,124.889587 175.488266,125.069939 177.886948,125.265823 
	C177.886948,127.014847 177.886948,128.605103 177.886948,130.504562 
	C175.726135,130.715332 173.629623,130.919846 171.082092,131.168350 
	C171.082092,135.895035 171.082092,140.622681 171.082092,145.644775 
	C168.731995,145.644775 166.830338,145.644775 164.742950,145.644775 
	C164.742950,134.068008 164.742950,122.399178 164.742950,110.636398 
	C169.962082,110.636398 174.728302,110.636398 180.099014,110.636398 
	C179.911026,112.616470 179.749252,114.320473 179.149826,116.113983 
z"/>
<path fill="#101110" opacity="1.000000" stroke="none" 
	d="
M195.531113,110.318878 
	C196.885361,111.998314 197.791718,113.674545 199.131073,116.151611 
	C195.067215,116.151611 192.472137,116.151611 189.589996,116.151611 
	C189.589996,119.338211 189.589996,122.212196 189.589996,125.347153 
	C191.938507,125.347153 194.027130,125.347153 196.483307,125.347153 
	C196.483307,127.189178 196.483307,128.878891 196.483307,130.910538 
	C194.259247,131.035812 192.015640,131.162201 189.401123,131.309479 
	C189.401123,136.122772 189.401123,140.726044 189.401123,145.632629 
	C187.138062,145.632629 185.257965,145.632629 183.138611,145.632629 
	C183.138611,133.997330 183.138611,122.419746 183.138611,110.315681 
	C187.231155,110.315681 191.157181,110.315681 195.531113,110.318878 
z"/>
<path fill="#0F100F" opacity="1.000000" stroke="none" 
	d="
M133.295624,117.367920 
	C133.141251,127.085869 133.141251,136.363907 133.141251,145.787140 
	C131.142899,145.787140 129.339584,145.787140 127.037315,145.787140 
	C127.037315,136.186096 127.037315,126.475586 127.037315,116.449577 
	C125.030746,116.241241 123.471664,116.079376 121.843201,115.910301 
	C121.843201,114.068672 121.843201,112.465515 121.843201,110.614197 
	C127.446938,110.614197 132.848923,110.614197 138.693527,110.614197 
	C138.779984,112.387955 138.864243,114.116837 138.950043,115.877159 
	C136.921097,116.264809 135.185547,116.596405 133.295624,117.367920 
z"/>
<path fill="#121312" opacity="1.000000" stroke="none" 
	d="
M131.028900,103.718231 
	C129.147079,104.524727 127.307884,104.856018 125.019348,105.268242 
	C125.019348,94.952400 125.019348,85.207253 125.019348,75.165817 
	C123.132416,74.947899 121.579903,74.768600 119.830421,74.566551 
	C119.830421,72.880905 119.830421,71.280106 119.830421,69.468231 
	C125.286079,69.468231 130.548553,69.468231 136.420197,69.468231 
	C136.505066,71.104279 136.592606,72.791695 136.692337,74.714363 
	C134.697906,74.880341 133.105042,75.012909 131.071533,75.182144 
	C131.071533,84.660103 131.071533,93.951561 131.028900,103.718231 
z"/>
<path fill="#F8F7F5" opacity="1.000000" stroke="none" 
	d="
M35.675880,118.092514 
	C36.768127,110.098152 39.197086,105.970352 46.252434,100.415428 
	C54.191036,111.635864 62.102863,122.818451 69.910820,133.854233 
	C64.398567,143.865677 46.811462,141.992676 41.063213,133.189117 
	C38.289810,128.941605 37.410835,123.457115 35.675880,118.092514 
z"/>
<path fill="#F7F6F4" opacity="1.000000" stroke="none" 
	d="
M71.536911,70.275497 
	C70.094994,77.394547 65.276070,81.019341 59.343185,84.151123 
	C54.261227,78.509331 51.386768,71.972733 51.403694,64.382965 
	C51.417213,58.320545 55.195450,54.117325 60.423035,53.660927 
	C65.870560,53.185326 69.858231,56.280655 71.225067,62.483768 
	C71.749199,64.862381 71.517128,67.407623 71.536911,70.275497 
z"/>
<path fill="#F5F4F3" opacity="1.000000" stroke="none" 
	d="
M187.783264,78.998573 
	C187.847458,77.411148 187.913696,76.291435 187.982849,75.122726 
	C191.843872,74.418297 194.235550,75.158676 194.350250,79.544708 
	C194.464172,83.900352 192.508011,85.503265 188.085571,84.821205 
	C187.984711,83.022285 187.885025,81.244286 187.783264,78.998573 
z"/>
<path fill="#F2F1F0" opacity="1.000000" stroke="none" 
	d="
M108.022636,99.558548 
	C106.549561,98.157036 104.593994,96.757568 104.523849,95.269241 
	C104.251266,89.485809 104.417984,83.663071 104.819237,77.882584 
	C104.897087,76.761024 106.613838,75.258812 107.853310,74.902969 
	C108.564835,74.698692 110.683533,76.412010 110.720627,77.321152 
	C110.983917,83.774681 110.974739,90.246719 110.770432,96.703934 
	C110.739975,97.666519 109.231178,98.582329 108.022636,99.558548 
z"/>
</svg>